<svg width="19" height="19" viewBox="0 0 19 19" fill="none" xmlns="http://www.w3.org/2000/svg">
<g id="&#240;&#159;&#166;&#134; icon &#34;Exclamation Triangle&#34;">
<path id="Vector" d="M18.7862 15.5511C19.395 16.6818 18.6308 18.0952 17.4147 18.0952H1.58512C0.366716 18.0952 -0.39401 16.6796 0.21366 15.5511L8.12854 0.847684C8.7377 -0.283586 10.2634 -0.281536 10.8715 0.847684L18.7862 15.5511ZM9.50001 12.5112C8.66199 12.5112 7.98265 13.239 7.98265 14.1369C7.98265 15.0348 8.66199 15.7626 9.50001 15.7626C10.338 15.7626 11.0174 15.0348 11.0174 14.1369C11.0174 13.239 10.338 12.5112 9.50001 12.5112ZM8.0594 6.66746L8.3041 11.474C8.31554 11.6989 8.48911 11.875 8.69933 11.875H10.3007C10.5109 11.875 10.6845 11.6989 10.6959 11.474L10.9406 6.66746C10.953 6.42452 10.7724 6.22024 10.5454 6.22024H8.45461C8.22753 6.22024 8.04703 6.42452 8.0594 6.66746Z" fill="white"/>
</g>
</svg>
