<svg width="50" height="59" viewBox="0 0 50 59" fill="none" xmlns="http://www.w3.org/2000/svg">
<g id="&#240;&#159;&#166;&#134; icon &#34;Apple&#34;">
<path id="Vector" d="M41.4524 31.1782C41.4261 26.3441 43.6126 22.6954 48.0384 20.0083C45.5621 16.465 41.8212 14.5156 36.8817 14.1336C32.2056 13.7648 27.0949 16.8602 25.2245 16.8602C23.2486 16.8602 18.7175 14.2653 15.161 14.2653C7.81102 14.3839 0 20.1269 0 31.8105C0 35.2615 0.632258 38.8268 1.89677 42.5062C3.58279 47.3403 9.66828 59.1951 16.0172 58.9976C19.3366 58.9185 21.6812 56.6398 26.0016 56.6398C30.1903 56.6398 32.3637 58.9976 36.065 58.9976C42.4667 58.9054 47.9726 48.1306 49.5796 43.2833C40.9914 39.2395 41.4524 31.4285 41.4524 31.1782ZM33.997 9.54973C37.593 5.28199 37.2637 1.39624 37.1583 0C33.9839 0.184409 30.3089 2.16021 28.2145 4.59704C25.9094 7.2051 24.5527 10.4323 24.8425 14.0677C28.2804 14.3312 31.4153 12.5661 33.997 9.54973Z" fill="#424242"/>
</g>
</svg>
