<svg width="34" height="34" viewBox="0 0 34 34" fill="none" xmlns="http://www.w3.org/2000/svg">
<path d="M0.698105 0.727914C1.14524 0.280918 1.7516 0.0298087 2.38384 0.0298087C3.01608 0.0298087 3.62244 0.280918 4.06957 0.727914L16.6899 13.3483L29.3103 0.727914C29.5302 0.500184 29.7933 0.318539 30.0842 0.193578C30.3751 0.0686165 30.688 0.00284113 31.0046 9.0026e-05C31.3212 -0.00266107 31.6352 0.0576665 31.9282 0.177554C32.2212 0.297441 32.4874 0.474486 32.7113 0.698359C32.9352 0.922232 33.1122 1.18845 33.2321 1.48148C33.352 1.77451 33.4123 2.08848 33.4096 2.40507C33.4068 2.72166 33.3411 3.03453 33.2161 3.32543C33.0911 3.61633 32.9095 3.87943 32.6818 4.09938L20.0614 16.7197L32.6818 29.3401C33.1161 29.7898 33.3564 30.3921 33.351 31.0173C33.3456 31.6424 33.0948 32.2404 32.6527 32.6825C32.2106 33.1246 31.6126 33.3754 30.9874 33.3808C30.3623 33.3862 29.76 33.1459 29.3103 32.7116L16.6899 20.0912L4.06957 32.7116C3.61988 33.1459 3.01759 33.3862 2.39242 33.3808C1.76725 33.3754 1.16923 33.1246 0.72715 32.6825C0.285072 32.2404 0.0343121 31.6424 0.0288796 31.0173C0.023447 30.3921 0.263777 29.7898 0.698105 29.3401L13.3185 16.7197L0.698105 4.09938C0.251109 3.65225 0 3.04589 0 2.41365C0 1.7814 0.251109 1.17505 0.698105 0.727914Z" fill="#0D0D0D"/>
</svg>
