<svg width="56" height="56" viewBox="0 0 56 56" fill="none" xmlns="http://www.w3.org/2000/svg">
<path d="M51.3333 28C51.3333 23.3851 49.9648 18.8738 47.4009 15.0367C44.837 11.1995 41.1929 8.20886 36.9293 6.44281C32.6656 4.67677 27.9741 4.21469 23.4479 5.11501C18.9216 6.01533 14.764 8.23762 11.5008 11.5008C8.23759 14.7641 6.0153 18.9217 5.11498 23.4479C4.21466 27.9741 4.67674 32.6657 6.44278 36.9293C8.20883 41.1929 11.1995 44.8371 15.0367 47.401C18.8738 49.9649 23.3851 51.3333 28 51.3333C34.1884 51.3333 40.1233 48.875 44.4991 44.4992C48.875 40.1233 51.3333 34.1884 51.3333 28ZM23.66 36.61L16.9866 29.61C16.8879 29.5088 16.8088 29.3901 16.7533 29.26C16.6542 29.1502 16.5752 29.0238 16.52 28.8867C16.3965 28.6074 16.3328 28.3054 16.3328 28C16.3328 27.6946 16.3965 27.3926 16.52 27.1133C16.631 26.8269 16.7975 26.5652 17.01 26.3433L24.01 19.3433C24.4493 18.904 25.0453 18.6571 25.6666 18.6571C26.288 18.6571 26.8839 18.904 27.3233 19.3433C27.7627 19.7827 28.0095 20.3786 28.0095 21C28.0095 21.6214 27.7627 22.2173 27.3233 22.6567L24.29 25.6667H37.3333C37.9521 25.6667 38.5456 25.9125 38.9832 26.3501C39.4208 26.7877 39.6666 27.3812 39.6666 28C39.6666 28.6188 39.4208 29.2123 38.9832 29.6499C38.5456 30.0875 37.9521 30.3333 37.3333 30.3333H24.1266L27.0433 33.39C27.4703 33.8387 27.7016 34.4386 27.6863 35.0578C27.671 35.6769 27.4103 36.2647 26.9616 36.6917C26.513 37.1187 25.9131 37.35 25.2939 37.3346C24.6747 37.3193 24.087 37.0587 23.66 36.61Z" fill="white"/>
</svg>
