<svg width="46" height="33" viewBox="0 0 46 33" fill="none" xmlns="http://www.w3.org/2000/svg">
<g id="menu">
<path id="Vector" d="M46 2.28894C46 1.02479 44.9752 0 43.7111 0H25.289C24.0249 0 23 1.02479 23 2.28894C23 3.55309 24.0249 4.5779 25.289 4.5779H43.7111C44.9752 4.5779 46 3.55309 46 2.28894Z" fill="black"/>
<path id="Vector_2" d="M46 16.0995C46 14.8352 44.9752 13.8105 43.7111 13.8105H2.28897C1.02489 13.8105 1.52588e-05 14.8352 1.52588e-05 16.0995C1.52588e-05 17.3636 1.02489 18.3882 2.28897 18.3882H43.7111C44.9752 18.3882 46 17.3636 46 16.0995Z" fill="black"/>
<path id="Vector_3" d="M43.7111 27.6221C44.9752 27.6221 46 28.647 46 29.9111C46 31.1752 44.9752 32.2001 43.7111 32.2001H16.089C14.8249 32.2001 13.8 31.1752 13.8 29.9111C13.8 28.647 14.8249 27.6221 16.089 27.6221H43.7111Z" fill="black"/>
</g>
</svg>
