<svg width="23" height="22" viewBox="0 0 23 22" fill="none" xmlns="http://www.w3.org/2000/svg">
<path id="Vector" d="M21.9941 17.3623C21.9416 17.0378 21.7382 16.7605 21.4335 16.5958L16.9269 13.9406L16.8898 13.9198C16.7078 13.8264 16.4971 13.7783 16.2809 13.7783C15.9033 13.7783 15.5427 13.9214 15.2924 14.1723L13.9623 15.503C13.9054 15.5571 13.7199 15.6354 13.6636 15.6382C13.6482 15.6369 12.1159 15.5266 9.29501 12.7054C6.47911 9.89008 6.35965 8.35308 6.3587 8.35308C6.36028 8.27448 6.43761 8.08963 6.49263 8.03241L7.62691 6.89844C8.02649 6.49792 8.14627 5.83395 7.90923 5.31962L5.40424 0.606125C5.22222 0.231384 4.86854 0 4.4762 0C4.1986 0 3.93075 0.115063 3.72137 0.324126L0.629441 3.40914C0.332981 3.70403 0.0777042 4.21961 0.0220589 4.63459C-0.00497777 4.83296 -0.553571 9.56816 5.93838 16.061C11.4498 21.5718 15.7473 22 16.9341 22C17.1894 22 17.3381 21.9818 17.3667 21.9777C17.7804 21.9223 18.2954 21.6677 18.59 21.3725L21.6794 18.2834C21.9315 18.03 22.0466 17.6952 21.9941 17.3623Z" fill="#231F20"/>
</svg>
