<svg width="56" height="56" viewBox="0 0 56 56" fill="none" xmlns="http://www.w3.org/2000/svg">
<path d="M4.6667 28C4.6667 23.3851 6.03517 18.8738 8.59907 15.0367C11.163 11.1995 14.8071 8.20886 19.0707 6.44281C23.3344 4.67677 28.0259 4.21469 32.5521 5.11501C37.0784 6.01533 41.236 8.23762 44.4992 11.5008C47.7624 14.7641 49.9847 18.9217 50.885 23.4479C51.7853 27.9741 51.3233 32.6657 49.5572 36.9293C47.7912 41.1929 44.8005 44.8371 40.9633 47.401C37.1262 49.9649 32.6149 51.3333 28 51.3333C21.8116 51.3333 15.8767 48.875 11.5009 44.4992C7.12502 40.1233 4.6667 34.1884 4.6667 28ZM32.34 36.61L39.0134 29.61C39.1121 29.5088 39.1912 29.3901 39.2467 29.26C39.3458 29.1502 39.4248 29.0238 39.48 28.8867C39.6035 28.6074 39.6672 28.3054 39.6672 28C39.6672 27.6946 39.6035 27.3926 39.48 27.1133C39.369 26.8269 39.2025 26.5652 38.99 26.3433L31.99 19.3433C31.5507 18.904 30.9547 18.6571 30.3334 18.6571C29.712 18.6571 29.1161 18.904 28.6767 19.3433C28.2373 19.7827 27.9905 20.3786 27.9905 21C27.9905 21.6214 28.2373 22.2173 28.6767 22.6567L31.71 25.6667H18.6667C18.0479 25.6667 17.4544 25.9125 17.0168 26.3501C16.5792 26.7877 16.3334 27.3812 16.3334 28C16.3334 28.6188 16.5792 29.2123 17.0168 29.6499C17.4544 30.0875 18.0479 30.3333 18.6667 30.3333H31.8734L28.9567 33.39C28.5297 33.8387 28.2984 34.4386 28.3137 35.0578C28.329 35.6769 28.5897 36.2647 29.0384 36.6917C29.487 37.1187 30.0869 37.35 30.7061 37.3346C31.3253 37.3193 31.913 37.0587 32.34 36.61Z" fill="white"/>
</svg>
