<svg width="174" height="27" viewBox="0 0 174 27" fill="none" xmlns="http://www.w3.org/2000/svg">
<g id="&#240;&#159;&#166;&#134; icon &#34;samsung&#34;">
<path id="Vector" d="M143.673 0.826495L144.007 20.358H143.84L138.185 0.833748H128.883V25.4258H135.031L134.698 5.23449H134.865L140.925 25.4258H149.821V0.833748L143.673 0.826495ZM26.5858 0.826495L21.9385 25.6795H28.6665L32.074 3.074H32.2407L35.5685 25.6795H42.2095L37.642 0.833748L26.5858 0.826495ZM64.148 0.826495L61.074 19.778H60.9072L57.8333 0.833748H47.705L47.2048 25.6795H53.4397L53.6065 3.32775H53.6863L57.8405 25.6795H64.1553L68.3095 3.32775H68.4762L68.643 25.6795H74.878L74.298 0.833748L64.148 0.826495ZM11.4695 18.618C11.6585 19.209 11.686 19.8398 11.5493 20.445C11.3825 21.2715 10.8025 22.1052 9.14225 22.1052C7.56175 22.1052 6.64825 21.1917 6.64825 19.8577V17.4507H0V19.3647C0 24.9327 4.40075 26.593 9.0625 26.593C13.543 26.593 17.284 25.0125 17.864 20.938C18.1975 18.7775 17.951 17.371 17.864 16.8707C16.704 11.6362 7.22825 10.1355 6.56125 7.22825C6.47828 6.78989 6.47828 6.33985 6.56125 5.90149C6.728 5.06774 7.31525 4.234 8.80875 4.234C10.3022 4.234 11.1287 5.15475 11.1287 6.4815V7.975H17.3638V6.235C17.3638 0.833748 12.4628 0 8.9755 0C4.5675 0 0.9135 1.4935 0.2465 5.48825C0.0283085 6.58779 0.0580296 7.72214 0.3335 8.80874C1.32675 13.9562 10.2225 15.457 11.4695 18.6107M92.3215 18.6107C92.568 19.1907 92.481 19.9447 92.4013 20.445C92.2345 21.2715 91.6545 22.1052 89.9942 22.1052C88.4137 22.1052 87.5003 21.1917 87.5003 19.8577V17.4507H80.852V19.3647C80.852 24.8457 85.173 26.506 89.8275 26.506C94.3153 26.506 97.9693 25.0125 98.5493 20.8582C98.8828 18.6977 98.6363 17.371 98.5493 16.7837C97.556 11.6362 88.16 10.0557 87.5003 7.22825C87.4166 6.78996 87.4166 6.33979 87.5003 5.90149C87.667 5.06774 88.247 4.234 89.7477 4.234C91.1543 4.234 92.0677 5.15475 92.0677 6.4815V7.975H98.2158V6.235C98.2158 0.833748 93.3945 0 89.9072 0C85.5065 0 81.9323 1.41375 81.2652 5.48825C81.0985 6.5685 81.0985 7.56174 81.3522 8.80874C82.3455 13.9562 91.0673 15.37 92.3215 18.6107ZM113.259 21.9385C114.999 21.9385 115.507 20.7785 115.667 20.1115C115.754 19.8577 115.753 19.4445 115.753 19.198V0.826495H122.061V18.6905C122.061 19.1908 122.061 20.1042 121.989 20.358C121.568 25.0052 117.914 26.4987 113.339 26.4987C108.772 26.4987 105.118 25.0052 104.697 20.3507C104.697 20.1042 104.618 19.1908 104.618 18.6905V0.826495H110.925V19.1907C110.925 19.5242 110.925 19.8505 111.012 20.1042C111.012 20.764 111.52 21.9312 113.259 21.9312M165.111 21.6847C166.939 21.6847 167.518 20.5247 167.685 19.8505C167.765 19.604 167.765 19.1907 167.765 18.937V15.3627H165.191V11.7087H174V18.357C174 18.8572 174 19.1908 173.92 20.0245C173.5 24.592 169.592 26.1652 165.191 26.1652C160.79 26.1652 156.883 24.592 156.47 20.0172C156.383 19.1907 156.382 18.8572 156.382 18.357V7.888C156.382 7.47475 156.47 6.641 156.47 6.2205C157.049 1.57325 160.79 0.0797477 165.191 0.0797477C169.592 0.0797477 173.42 1.57324 173.913 6.22774C174 6.97449 174 7.888 174 7.888V8.72175H167.765V7.308C167.765 7.308 167.765 6.728 167.685 6.3945C167.598 5.8145 167.105 4.56749 165.191 4.56749C163.364 4.56749 162.871 5.7275 162.697 6.3945C162.617 6.72075 162.618 7.14125 162.618 7.5545V18.937C162.618 19.2705 162.617 19.604 162.697 19.8505C162.697 20.5175 163.364 21.6847 165.111 21.6847Z" fill="#424242"/>
</g>
</svg>
