<svg width="27" height="27" viewBox="0 0 27 27" fill="none" xmlns="http://www.w3.org/2000/svg">
<g id="&#240;&#159;&#166;&#134; icon &#34;search outline&#34;">
<path id="Vector" d="M23.2988 21.7013L19.4738 17.8875C20.7079 16.3153 21.3775 14.3737 21.375 12.375C21.375 10.595 20.8472 8.85491 19.8582 7.37487C18.8693 5.89483 17.4637 4.74128 15.8192 4.06009C14.1746 3.3789 12.365 3.20067 10.6192 3.54794C8.87336 3.8952 7.26972 4.75237 6.01104 6.01104C4.75237 7.26972 3.8952 8.87336 3.54794 10.6192C3.20067 12.365 3.3789 14.1746 4.06009 15.8192C4.74128 17.4637 5.89483 18.8693 7.37487 19.8582C8.85491 20.8472 10.595 21.375 12.375 21.375C14.3737 21.3775 16.3153 20.7079 17.8875 19.4738L21.7013 23.2988C21.8058 23.4042 21.9303 23.4879 22.0674 23.545C22.2044 23.6021 22.3515 23.6315 22.5 23.6315C22.6485 23.6315 22.7956 23.6021 22.9327 23.545C23.0697 23.4879 23.1942 23.4042 23.2988 23.2988C23.4042 23.1942 23.4879 23.0697 23.545 22.9327C23.6021 22.7956 23.6315 22.6485 23.6315 22.5C23.6315 22.3515 23.6021 22.2044 23.545 22.0674C23.4879 21.9303 23.4042 21.8058 23.2988 21.7013ZM5.625 12.375C5.625 11.04 6.02088 9.73494 6.76258 8.62491C7.50428 7.51487 8.55849 6.64971 9.79189 6.13882C11.0253 5.62793 12.3825 5.49425 13.6919 5.7547C15.0012 6.01515 16.204 6.65803 17.148 7.60203C18.092 8.54604 18.7349 9.74877 18.9953 11.0581C19.2558 12.3675 19.1221 13.7247 18.6112 14.9581C18.1003 16.1915 17.2351 17.2457 16.1251 17.9874C15.0151 18.7291 13.71 19.125 12.375 19.125C10.5848 19.125 8.8679 18.4138 7.60203 17.148C6.33616 15.8821 5.625 14.1652 5.625 12.375Z" fill="white"/>
</g>
</svg>
